<?xml version="1.0" standalone="no"?>
<!DOCTYPE svg PUBLIC "-//W3C//DTD SVG 20010904//EN"
 "http://www.w3.org/TR/2001/REC-SVG-20010904/DTD/svg10.dtd">
<svg version="1.0" xmlns="http://www.w3.org/2000/svg"
 width="512.000000pt" height="512.000000pt" viewBox="0 0 512.000000 512.000000"
 preserveAspectRatio="xMidYMid meet">
<metadata>
Created by potrace 1.16, written by Peter Selinger 2001-2019
</metadata>
<g transform="translate(0.000000,512.000000) scale(0.100000,-0.100000)"
fill="#000000" stroke="none">
<path d="M2425 4543 c-181 -22 -367 -73 -490 -133 -33 -16 -49 -27 -35 -23 14
4 58 6 97 5 54 -2 94 4 155 22 150 45 251 59 428 60 244 1 392 -32 618 -139
61 -30 112 -52 112 -50 0 9 -130 95 -200 133 -101 55 -265 108 -375 121 -85
10 -244 12 -310 4z"/>
<path d="M1945 4258 c-205 -122 -432 -415 -515 -666 -71 -217 -68 -452 10
-682 44 -130 111 -247 238 -417 161 -214 247 -350 274 -432 18 -55 22 -93 24
-222 1 -116 6 -170 19 -208 19 -59 94 -148 142 -167 25 -11 115 -14 415 -14
364 0 385 1 428 21 55 25 87 53 110 99 28 56 31 98 19 217 -20 191 14 293 213
628 75 127 152 265 172 308 150 330 180 695 82 984 -13 38 -31 83 -41 99 -9
16 -13 20 -10 9 72 -224 70 -472 -6 -776 -31 -123 -86 -273 -136 -372 -14 -29
-73 -130 -130 -225 -118 -194 -165 -291 -195 -400 -18 -68 -20 -93 -14 -236 7
-156 6 -162 -16 -200 -39 -66 -72 -77 -223 -74 l-130 3 -1 196 c-1 108 -4 208
-8 222 -3 14 1 40 8 59 10 23 14 71 14 149 0 97 3 120 20 149 11 19 39 95 62
168 23 74 79 229 124 345 46 117 87 223 91 237 4 14 15 34 25 45 27 30 31 57
15 88 -10 21 -13 45 -8 88 5 50 3 59 -10 59 -12 0 -18 -14 -23 -51 -4 -28 -13
-56 -21 -62 -55 -45 -64 -67 -44 -106 7 -12 -3 -54 -34 -148 -25 -72 -63 -195
-85 -274 -46 -161 -100 -329 -106 -329 -15 0 115 769 138 814 22 45 17 69 -14
65 -13 -2 -33 1 -46 5 -16 5 -33 1 -58 -14 -26 -17 -53 -23 -107 -24 -40 -2
-94 -6 -122 -10 -41 -7 -63 -4 -124 18 -41 14 -85 26 -99 26 -35 0 -84 -31
-76 -50 27 -71 10 -90 -80 -90 l-56 0 0 42 c0 28 -7 49 -21 64 -19 20 -19 25
-8 64 24 80 131 170 203 170 15 0 46 10 69 22 34 18 56 21 117 19 80 -3 115
-3 222 0 85 2 161 -32 214 -97 36 -43 57 -54 69 -34 12 19 -94 117 -158 146
-50 22 -73 27 -129 25 -86 -3 -140 -3 -225 0 -54 1 -77 -3 -113 -21 -25 -12
-68 -26 -97 -30 -98 -15 -194 -108 -212 -205 -5 -29 -17 -52 -30 -61 -38 -27
-24 -104 20 -104 16 0 65 -102 250 -521 42 -97 90 -200 105 -230 25 -50 27
-65 31 -202 2 -82 8 -159 13 -172 6 -15 6 -27 0 -30 -6 -4 -10 -93 -10 -216
l0 -211 -119 4 c-138 4 -161 14 -199 89 -20 41 -23 62 -25 210 -3 160 -4 167
-40 273 -52 152 -113 265 -239 440 -130 180 -208 331 -244 471 -23 91 -25 114
-21 245 3 121 9 160 31 234 66 219 225 457 475 714 117 121 108 134 -34 50z
m400 -1054 c75 -24 87 -25 210 -19 82 4 140 13 158 22 16 8 38 13 50 11 30 -4
29 -15 -27 -358 -43 -265 -56 -353 -72 -503 -4 -47 -8 -56 -19 -47 -18 15 -30
132 -16 158 6 11 26 129 46 263 33 230 56 371 71 448 l7 33 -32 -16 c-17 -9
-78 -21 -137 -27 -110 -10 -182 -3 -265 26 -52 19 -49 19 -49 -8 0 -13 -9 -32
-19 -41 -18 -17 -19 -16 -26 14 -5 23 -2 36 11 51 21 23 13 24 109 -7z m-324
-26 c10 -18 8 -24 -7 -35 -21 -15 -34 -13 -48 9 -7 12 -6 21 3 32 19 22 38 20
52 -6z m978 -2 c9 -11 10 -20 1 -36 -13 -25 -43 -23 -48 3 -8 42 23 63 47 33z
m-569 -27 c50 -7 110 -8 178 -2 l103 9 -6 -26 c-3 -14 -21 -128 -40 -255 -47
-309 -40 -285 -79 -285 l-33 0 -7 77 c-10 119 -8 143 9 143 12 0 13 -4 5 -19
-12 -24 -13 -94 -1 -86 5 3 12 18 16 35 3 16 14 39 24 52 12 15 17 34 14 55
-4 27 -11 34 -41 43 -48 13 -114 -4 -111 -28 1 -9 -2 -26 -6 -37 -52 -132 -74
-178 -78 -165 -3 8 -31 110 -63 227 l-57 212 29 35 c20 25 35 34 49 30 11 -2
54 -9 95 -15z m-174 -179 c19 -63 48 -167 65 -230 17 -63 39 -129 49 -146 16
-28 16 -33 2 -60 -10 -18 -16 -55 -16 -96 -1 -37 -4 -64 -7 -60 -3 4 -16 34
-29 67 -13 33 -55 132 -93 220 -39 88 -91 214 -117 280 l-48 120 56 7 c30 4
58 10 61 13 3 3 14 5 25 3 15 -2 26 -26 52 -118z m680 28 c-44 -121 -55 -145
-55 -131 -1 6 15 53 34 105 20 51 38 99 40 106 2 6 7 12 10 12 2 0 -11 -42
-29 -92z m-376 -148 c11 -7 6 -10 -20 -10 -26 0 -31 3 -20 10 8 5 17 10 20 10
3 0 12 -5 20 -10z m-46 -86 c3 -26 6 -73 6 -105 0 -50 -3 -59 -17 -59 -10 0
-36 -3 -57 -7 l-39 -6 7 34 c3 19 17 61 30 94 14 33 27 68 30 78 11 34 33 18
40 -29z m95 -226 c-1 -13 -4 -36 -8 -52 l-6 -29 -17 37 c-16 33 -22 36 -58 36
-53 0 -70 -27 -77 -125 -5 -61 -10 -78 -25 -86 -11 -6 -22 -9 -24 -6 -3 3 -6
42 -6 88 -1 58 3 96 15 122 l16 37 95 0 c93 0 96 -1 95 -22z m-99 -128 c0 -75
-1 -80 -21 -80 -20 0 -21 4 -14 63 8 76 14 97 26 97 5 0 9 -36 9 -80z m44 49
c12 -61 7 -129 -9 -129 -12 0 -15 16 -15 80 0 81 12 106 24 49z m33 -96 c-2
-16 -4 -5 -4 22 0 28 2 40 4 28 2 -13 2 -35 0 -50z m17 -73 c21 -7 56 -54 56
-74 0 -3 -22 -8 -50 -12 -57 -7 -68 -24 -16 -24 62 0 93 -26 39 -32 -35 -4
-37 -30 -3 -38 29 -7 31 -33 6 -92 -14 -34 -20 -38 -51 -38 -33 0 -35 2 -35
31 0 18 7 37 15 43 12 9 12 17 2 49 -10 30 -17 37 -37 37 -41 0 -100 -12 -100
-20 0 -5 17 -12 38 -17 37 -9 37 -9 40 -66 l3 -57 -56 0 c-30 0 -55 3 -55 8 0
4 -3 17 -6 29 -5 17 0 22 25 28 41 9 49 25 13 25 -33 0 -42 14 -42 65 0 35 15
45 73 45 49 0 28 19 -25 22 -65 4 -74 24 -30 68 28 28 36 30 101 30 38 0 81
-4 95 -10z m-174 -550 c0 -203 -1 -210 -20 -210 -19 0 -20 7 -20 194 0 202 3
226 26 226 12 0 14 -37 14 -210z m84 18 c-1 -106 -3 -201 -3 -210 -1 -12 -9
-18 -26 -18 l-25 0 0 210 0 210 28 0 29 0 -3 -192z m86 -2 c0 -107 -3 -201 -6
-210 -3 -9 -17 -16 -30 -16 l-24 0 0 210 0 210 30 0 30 0 0 -194z m44 172 c3
-13 6 -107 6 -210 0 -161 -2 -188 -15 -188 -13 0 -15 30 -15 210 0 191 7 249
24 188z"/>
<path d="M3042 3398 c-19 -19 -14 -56 8 -63 24 -8 50 10 50 34 0 19 -19 41
-35 41 -6 0 -16 -5 -23 -12z"/>
<path d="M3155 3079 c-9 -76 -1 -87 14 -19 13 62 14 80 2 80 -5 0 -12 -27 -16
-61z"/>
<path d="M3238 3124 c-5 -4 -8 -17 -8 -29 0 -44 -33 -144 -81 -244 -27 -57
-47 -106 -45 -108 9 -9 126 242 136 292 12 57 11 103 -2 89z"/>
<path d="M1980 2287 c0 -2 9 -30 20 -63 44 -127 61 -246 58 -408 -3 -165 5
-198 58 -232 37 -25 41 -9 5 31 -40 46 -45 69 -38 187 4 67 2 126 -8 181 -14
79 -81 307 -90 307 -3 0 -5 -2 -5 -3z"/>
<path d="M2155 2215 c46 -136 49 -178 27 -377 -5 -38 -5 -68 -2 -68 9 0 31
121 37 205 4 57 0 84 -21 150 -14 44 -31 87 -37 95 -9 12 -10 11 -4 -5z"/>
<path d="M2968 1359 c-11 -6 -171 -9 -448 -7 l-431 3 25 -20 c18 -14 26 -30
26 -52 0 -17 6 -35 13 -41 6 -5 69 -12 139 -13 180 -5 189 -24 16 -33 -129 -7
-147 -10 -136 -21 3 -3 161 -2 352 1 312 7 346 9 340 23 -25 60 -11 91 43 91
27 0 42 8 69 36 19 20 34 38 34 40 0 7 -25 3 -42 -7z"/>
<path d="M2348 1163 c-121 -2 -198 -7 -198 -13 0 -6 141 -10 388 -10 342 1
385 2 368 15 -21 16 -15 16 -558 8z"/>
<path d="M2105 1090 c-12 -19 6 -48 41 -69 30 -18 52 -21 140 -21 57 0 104 -4
104 -9 0 -15 -26 -20 -125 -27 -70 -5 -95 -11 -95 -20 0 -12 62 -14 345 -14
l345 0 0 26 c0 41 18 63 59 74 37 10 59 40 45 62 -8 12 -851 10 -859 -2z"/>
<path d="M2114 898 c-8 -13 14 -45 45 -67 28 -20 41 -21 384 -21 343 0 355 1
381 21 27 21 35 57 14 64 -23 8 -820 10 -824 3z"/>
<path d="M2313 735 l58 -55 174 0 173 0 56 46 c31 25 54 50 51 55 -4 5 -124 9
-288 9 l-282 -1 58 -54z"/>
<path d="M2320 647 c0 -7 22 -34 48 -60 l48 -47 88 0 89 0 68 52 c37 28 66 55
63 60 -3 4 -95 8 -205 8 -156 0 -199 -3 -199 -13z"/>
</g>
</svg>